<svg width="800" height="800" viewBox="0 0 800 800" fill="none" xmlns="http://www.w3.org/2000/svg">
<rect width="800" height="800" rx="400" fill="#220044"/>
<path d="M218.766 514.345L128 235C184.658 255.577 190.672 285.081 199.88 305.471L244.135 442.747C248.364 454.586 265.999 509.835 255.693 520.828C247.236 529.849 228.82 525.714 218.766 514.345Z" fill="url(#paint0_linear)"/>
<path d="M244.135 305.189C226.313 251.128 156.94 236.785 128 235C174.511 251.067 194.43 288.276 198.752 305.189C214.35 353.578 247.293 452.387 249.773 460.506C257.948 491.231 258.324 513.312 256.538 520.547L286.982 441.056C279.653 415.123 277.961 407.794 244.135 305.189Z" fill="url(#paint1_linear)"/>
<path d="M256.538 556.064C236.243 552.456 223.276 526.936 219.048 514.909C224.498 519.419 237.47 526.807 246.954 524.775C250.901 523.929 257.666 517.54 258.229 513.5C266.122 489.07 285.234 443.085 286.136 441.056C291.322 447.821 296.565 443.499 298.539 440.492C312.351 395.391 340.483 304.569 342.512 302.088C360.327 287.881 375.305 302.934 380.566 312.236C361.022 369.082 321.597 484.015 320.244 488.976C318.891 493.937 313.103 508.332 310.378 514.909C301.076 529.943 276.834 559.672 256.538 556.064Z" fill="url(#paint2_linear)"/>
<path d="M326.163 552.963C290.984 575.288 259.263 562.265 247.8 552.963C282.979 562.885 309.25 517.258 317.989 493.204L380.567 312.236L398.607 359.31C388.365 393.794 380.285 420.478 363.935 476.291C343.953 544.507 327.573 551.554 326.163 552.963Z" fill="url(#paint3_linear)"/>
<path d="M351.532 275.309L341.103 305.471C357.114 285.852 374.083 301.806 380.566 312.236L398.607 359.31L443.144 493.204C462.312 542.139 499.22 512.654 492.473 493.204C470.017 428.465 422.679 293.97 412.983 273.9C391.334 242.554 362.15 263 351.532 275.309Z" fill="url(#paint4_linear)"/>
<path d="M455.547 275.309C410.446 202.922 367.412 245.148 351.532 275.309C368.164 257.551 381.694 257.269 385.922 257.269C407.12 258.396 416.083 280.383 421.157 294.195L492.474 493.204C493.601 496.587 493.131 500.627 492.755 502.224L509.668 446.13C493.977 394.733 461.185 288.614 455.547 275.309Z" fill="url(#paint5_linear)"/>
<path d="M671.751 235.564C642.341 326.612 597.616 503.352 567.736 536.896C540.822 566.086 515.045 567.977 495.01 560.292C519.816 544.842 530.434 522.612 532.783 513.5C567.736 428.935 626.086 254.732 629.75 246.275C644.69 239.792 658.69 235.846 671.751 235.564Z" fill="url(#paint6_linear)"/>
<path d="M565.199 302.088C594.064 267.586 621.106 249.658 629.75 246.275L586.622 370.303L563.226 435.136C555.615 455.244 540.224 498.052 536.165 508.426C527.821 536.839 504.97 555.124 495.01 560.574C464.567 551.272 451.037 516.882 445.963 499.687C467.837 535.317 490.218 514.909 493.601 499.687C498.299 483.902 508.09 451.091 509.668 446.13C514.629 452.444 519.252 447.257 520.944 443.875C534.85 398.304 563.169 306.147 565.199 302.088Z" fill="url(#paint7_linear)"/>
<path d="M428.486 448.667H371.828L376.925 431.754H422.822L428.486 448.667Z" fill="url(#paint8_linear)"/>
<path d="M434.749 467.835L428.486 448.667H371.828L366.19 467.835H434.749Z" fill="url(#paint9_linear)"/>
<defs>
<linearGradient id="paint0_linear" x1="194.33" y1="235" x2="194.33" y2="529.094" gradientUnits="userSpaceOnUse">
<stop stop-color="#BE7CFF"/>
<stop offset="1" stop-color="#8000FF"/>
</linearGradient>
<linearGradient id="paint1_linear" x1="182.403" y1="180.315" x2="265.558" y2="541.97" gradientUnits="userSpaceOnUse">
<stop stop-color="#D28FF1"/>
<stop offset="1" stop-color="#8E1DFF"/>
</linearGradient>
<linearGradient id="paint2_linear" x1="384.795" y1="249.094" x2="222.43" y2="611.876" gradientUnits="userSpaceOnUse">
<stop stop-color="#5F00BD"/>
<stop offset="1" stop-color="#C68DFF"/>
</linearGradient>
<linearGradient id="paint3_linear" x1="382.822" y1="271.645" x2="336.875" y2="724.347" gradientUnits="userSpaceOnUse">
<stop stop-color="#7A01F2"/>
<stop offset="1" stop-color="#E4C9FF"/>
</linearGradient>
<linearGradient id="paint4_linear" x1="358.016" y1="216.678" x2="502.903" y2="573.822" gradientUnits="userSpaceOnUse">
<stop stop-color="#B66EFD"/>
<stop offset="1" stop-color="#5700AD"/>
</linearGradient>
<linearGradient id="paint5_linear" x1="367.882" y1="194.691" x2="494.165" y2="495.459" gradientUnits="userSpaceOnUse">
<stop stop-color="#DA79FC"/>
<stop offset="1" stop-color="#7B00F5"/>
<stop offset="1" stop-color="#5808A8"/>
</linearGradient>
<linearGradient id="paint6_linear" x1="669.777" y1="239.228" x2="527.145" y2="543.097" gradientUnits="userSpaceOnUse">
<stop stop-color="#5700AD"/>
<stop offset="1" stop-color="#AF5FFF"/>
</linearGradient>
<linearGradient id="paint7_linear" x1="627.213" y1="248.53" x2="469.077" y2="543.661" gradientUnits="userSpaceOnUse">
<stop stop-color="#8F2FEE"/>
<stop offset="1" stop-color="#D796FF"/>
</linearGradient>
<linearGradient id="paint8_linear" x1="423.066" y1="432.13" x2="372.494" y2="441.762" gradientUnits="userSpaceOnUse">
<stop stop-color="#8000FF"/>
<stop offset="1" stop-color="#B56BFF" stop-opacity="0.85"/>
</linearGradient>
<linearGradient id="paint9_linear" x1="425.907" y1="450.358" x2="368.467" y2="458.532" gradientUnits="userSpaceOnUse">
<stop stop-color="#9428FF"/>
<stop offset="1" stop-color="#DF84FF"/>
</linearGradient>
</defs>
</svg>
